# xmcd CD database file
#
# Track frame offsets:
#	150
#	19770
#	33600
#	47288
#	62553
#	82713
#	93500
#	108673
#	122885
#	135858
#	165548
#	185573
#
# Disc length: 2668 seconds
#
# Revision: 0
# Processed by: cddbd v1.5.2PL0 Copyright (c) Steve Scherf et al.
# Submitted via: CDex 1.70beta3
#
DISCID=900a6a0c
DTITLE=ROUIS ARMSTRONG - ROUIS ARMSTRONG
DYEAR=1900
DGENRE=Jazz
TTITLE0=WHEN THE SAINTS GO MARCHING IN
TTITLE1=KISS OF FIRE
TTITLE2=C'EST SI BON
TTITLE3=MACK THE KNIFE
TTITLE4=ON THE SUNNY SIDE OF THE STREET
TTITLE5=HELLO DOLLY
TTITLE6=LA VIE EN ROSE
TTITLE7=ROCKIN CHAIR
TTITLE8=BLUE BERRY HILL
TTITLE9=CHIM CHIM CHEREE
TTITLE10=WHEN YOU WISH UPON A STAR
TTITLE11=BODY AND SOUL
EXTD=
EXTT0=
EXTT1=
EXTT2=
EXTT3=
EXTT4=
EXTT5=
EXTT6=
EXTT7=
EXTT8=
EXTT9=
EXTT10=
EXTT11=
PLAYORDER=
